<svg width="21" height="20" viewBox="0 0 21 20" fill="none" xmlns="http://www.w3.org/2000/svg">
<path fill-rule="evenodd" clip-rule="evenodd" d="M17.7774 2.86001H14.1634C14.1634 2.86001 12.9588 2.65355 12.9588 1.65667C12.9588 0.659799 14.1634 0.453339 14.1634 0.453339H20.1868V6.47001C20.1868 6.47001 20.1868 7.67334 18.9821 7.67334C17.7774 7.67334 17.7774 6.47001 17.7774 6.47001V2.86001ZM6.93544 17.3H3.32144V13.69C3.32144 13.69 3.32144 12.4867 2.11678 12.4867C0.912109 12.4867 0.912109 13.69 0.912109 13.69V19.7067H6.93544C6.93544 19.7067 8.14011 19.5002 8.14011 18.5033C8.14011 17.5065 6.93544 17.3 6.93544 17.3ZM17.7774 13.69V17.3H14.1634C14.1634 17.3 12.9588 17.3 12.9588 18.5033C12.9588 19.7067 14.1634 19.7067 14.1634 19.7067H20.1868V13.69C20.1868 13.69 19.9801 12.4867 18.9821 12.4867C17.9841 12.4867 17.7774 13.69 17.7774 13.69ZM3.32144 6.47001V2.86001H6.93544C6.93544 2.86001 8.14011 2.86001 8.14011 1.65667C8.14011 0.453339 6.93544 0.453339 6.93544 0.453339H0.912109V6.47001C0.912109 6.47001 1.1188 7.67334 2.11678 7.67334C3.11475 7.67334 3.32144 6.47001 3.32144 6.47001Z" fill="#4A4B68"/>
</svg>
