<svg width="20" height="20" viewBox="0 0 20 20" fill="none" xmlns="http://www.w3.org/2000/svg">
<path opacity="0.3" fill-rule="evenodd" clip-rule="evenodd" d="M10.9587 2.21666C10.9587 1.38823 11.6303 0.71666 12.4587 0.71666H17.8914C18.7198 0.71666 19.3914 1.38823 19.3914 2.21666V7.63999C19.3914 8.46842 18.7198 9.13999 17.8914 9.13999H12.4587C11.6303 9.13999 10.9587 8.46842 10.9587 7.63999V2.21666ZM0.116699 13.0467C0.116699 12.2182 0.788272 11.5467 1.6167 11.5467H7.04937C7.87779 11.5467 8.54937 12.2182 8.54937 13.0467V18.47C8.54937 19.2984 7.87779 19.97 7.04937 19.97H1.6167C0.788272 19.97 0.116699 19.2984 0.116699 18.47V13.0467ZM12.4587 11.5467C11.6303 11.5467 10.9587 12.2182 10.9587 13.0467V18.47C10.9587 19.2984 11.6303 19.97 12.4587 19.97H17.8914C18.7198 19.97 19.3914 19.2984 19.3914 18.47V13.0467C19.3914 12.2182 18.7198 11.5467 17.8914 11.5467H12.4587Z" fill="#6993FF"/>
</svg>
